<?xml version="1.0" encoding="UTF-8" standalone="no"?>
<svg
   xmlns:dc="http://purl.org/dc/elements/1.1/"
   xmlns:cc="http://creativecommons.org/ns#"
   xmlns:rdf="http://www.w3.org/1999/02/22-rdf-syntax-ns#"
   xmlns:svg="http://www.w3.org/2000/svg"
   xmlns="http://www.w3.org/2000/svg"
   xmlns:sodipodi="http://sodipodi.sourceforge.net/DTD/sodipodi-0.dtd"
   xmlns:inkscape="http://www.inkscape.org/namespaces/inkscape"
   width="300mm"
   height="154.47095mm"
   viewBox="0 0 300 154.47095"
   version="1.1"
   id="svg8"
   inkscape:version="1.0.1 (3bc2e813f5, 2020-09-07)"
   sodipodi:docname="placa muro de la fama.svg"
   inkscape:export-filename="D:\OneDrive\Documentos\Inventoteca\Muro de la Fama\placa muro de la fama.png"
   inkscape:export-xdpi="169.33333"
   inkscape:export-ydpi="169.33333">
  <defs
     id="defs2" />
  <sodipodi:namedview
     id="base"
     pagecolor="#ffffff"
     bordercolor="#666666"
     borderopacity="1.0"
     inkscape:pageopacity="0.0"
     inkscape:pageshadow="2"
     inkscape:zoom="0.49497475"
     inkscape:cx="702.59173"
     inkscape:cy="318.62964"
     inkscape:document-units="mm"
     inkscape:current-layer="g913"
     inkscape:document-rotation="0"
     showgrid="false"
     fit-margin-top="0"
     fit-margin-left="0"
     fit-margin-right="0"
     fit-margin-bottom="0"
     inkscape:window-width="1366"
     inkscape:window-height="705"
     inkscape:window-x="-8"
     inkscape:window-y="-8"
     inkscape:window-maximized="1" />
  <metadata
     id="metadata5">
    <rdf:RDF>
      <cc:Work
         rdf:about="">
        <dc:format>image/svg+xml</dc:format>
        <dc:type
           rdf:resource="http://purl.org/dc/dcmitype/StillImage" />
        <dc:title></dc:title>
      </cc:Work>
    </rdf:RDF>
  </metadata>
  <g
     inkscape:label="Capa 1"
     inkscape:groupmode="layer"
     id="layer1"
     transform="translate(-3.347734,-22.27836)">
    <g
       id="g856"
       transform="matrix(0.53453814,0,0,0.53453814,-7.0137027,4.6550969)">
      <g
         id="g117"
         transform="matrix(1.0857393,0,0,1.0857393,36.864747,60.989074)">
        <g
           aria-label="MURO 
"
           id="text12"
           style="font-size:163.42px;line-height:0.95;font-family:'DELVON DEMO';-inkscape-font-specification:'DELVON DEMO';stroke-width:0.336717" />
      </g>
      <g
         id="g913">
        <path
           id="rect858"
           style="fill:#ffffff;fill-opacity:1;stroke-width:0.560172;stroke-linejoin:bevel;paint-order:fill markers stroke"
           d="M 20.610184,13.254285 H 585.38985 c 10.49338,0 18.94113,8.893767 18.94113,19.941181 V 316.7286 c 0,11.04741 -8.44775,19.94118 -18.94113,19.94118 H 20.610184 c -10.493387,0 -18.9411313,-8.89377 -18.9411313,-19.94118 V 33.195466 c 0,-11.047414 8.4477443,-19.941181 18.9411313,-19.941181 z" />
        <path
           d="M 47.384283,127.07796 V 51.251078 l -7.3539,21.08118 -11.76624,0.16342 -7.51732,-21.2446 V 127.07796 H 9.1440035 V 12.847378 H 19.439463 l 14.7078,41.34526 14.54438,-41.34526 h 10.29546 V 127.07796 Z"
           style="font-size:163.42px;line-height:0.95;font-family:'DELVON DEMO';-inkscape-font-specification:'DELVON DEMO';stroke-width:0.336717"
           id="path854"
           transform="matrix(1.0857393,0,0,1.0857393,36.864747,60.989074)" />
        <path
           d="m 98.534705,12.683958 h 11.602825 v 94.456762 q 0,4.24892 -1.6342,8.171 -1.6342,3.75866 -4.57576,6.5368 -2.77814,2.77814 -6.536805,4.41234 -3.75866,1.6342 -8.00758,1.6342 -4.24892,0 -8.00758,-1.6342 -3.75866,-1.6342 -6.5368,-4.41234 -2.778139,-2.77814 -4.412339,-6.5368 -1.6342,-3.92208 -1.6342,-8.171 V 12.683958 h 11.602819 v 94.456762 q 0,3.75866 2.61472,6.37338 2.61472,2.61472 6.37338,2.61472 3.75866,0 6.37338,-2.61472 2.77814,-2.61472 2.77814,-6.37338 z"
           style="font-size:163.42px;line-height:0.95;font-family:'DELVON DEMO';-inkscape-font-specification:'DELVON DEMO';stroke-width:0.336717"
           id="path856"
           transform="matrix(1.0857393,0,0,1.0857393,36.864747,60.989074)" />
        <path
           d="M 131.5455,82.954558 V 127.07796 H 119.94268 V 32.621198 q 0,-4.24892 1.6342,-8.00758 1.6342,-3.75866 4.41234,-6.5368 2.77814,-2.94156 6.5368,-4.57576 3.92208,-1.6342 8.171,-1.6342 4.24892,0 8.00758,1.6342 3.75866,1.6342 6.5368,4.57576 2.94156,2.77814 4.57576,6.5368 1.6342,3.75866 1.6342,8.00758 v 28.76192 q 0,5.7197 -2.94156,10.45888 -2.77814,4.73918 -7.3539,7.51732 4.73918,2.77814 7.51732,7.51732 2.77814,4.73918 2.77814,10.295459 V 127.07796 H 149.68512 V 97.172097 q 0,-2.614719 -1.47078,-4.739179 -1.30736,-2.28788 -3.75866,-3.43182 z m 9.15152,-59.48488 q -3.75866,0 -6.5368,2.77814 -2.61472,2.61472 -2.61472,6.37338 v 37.5866 l 0.8171,0.32684 h 8.33442 q 3.75866,0 6.37338,-2.61472 2.61472,-2.77814 2.61472,-6.5368 v -28.76192 q 0,-3.75866 -2.61472,-6.37338 -2.61472,-2.77814 -6.37338,-2.77814 z"
           style="font-size:163.42px;line-height:0.95;font-family:'DELVON DEMO';-inkscape-font-specification:'DELVON DEMO';stroke-width:0.336717"
           id="path858"
           transform="matrix(1.0857393,0,0,1.0857393,36.864747,60.989074)" />
        <path
           d="m 191.84744,127.73164 q -4.24892,0 -8.171,-1.6342 -3.75866,-1.6342 -6.5368,-4.41234 -2.77814,-2.77814 -4.41234,-6.5368 -1.6342,-3.92208 -1.6342,-8.171 V 32.621198 q 0,-4.24892 1.6342,-8.00758 1.6342,-3.75866 4.41234,-6.5368 2.77814,-2.94156 6.5368,-4.57576 3.92208,-1.6342 8.171,-1.6342 4.24892,0 8.00758,1.6342 3.75866,1.6342 6.5368,4.57576 2.77814,2.77814 4.41234,6.5368 1.6342,3.75866 1.6342,8.00758 V 106.9773 q 0,4.24892 -1.6342,8.171 -1.6342,3.75866 -4.41234,6.5368 -2.77814,2.77814 -6.5368,4.41234 -3.75866,1.6342 -8.00758,1.6342 z m -9.15152,-20.75434 q 0,3.75866 2.61472,6.5368 2.77814,2.61472 6.5368,2.61472 3.75866,0 6.37338,-2.61472 2.61472,-2.77814 2.61472,-6.5368 V 32.621198 q 0,-3.75866 -2.61472,-6.37338 -2.61472,-2.77814 -6.37338,-2.77814 -3.75866,0 -6.5368,2.77814 -2.61472,2.61472 -2.61472,6.37338 z"
           style="font-size:163.42px;line-height:0.95;font-family:'DELVON DEMO';-inkscape-font-specification:'DELVON DEMO';stroke-width:0.336717"
           id="path860"
           transform="matrix(1.0857393,0,0,1.0857393,36.864747,60.989074)" />
        <g
           aria-label=" 
DE 
LA 
"
           id="text12-2"
           style="font-size:82.5145px;line-height:0;font-family:'DELVON DEMO';-inkscape-font-specification:'DELVON DEMO';stroke-width:0.170016"
           transform="matrix(1.0857393,0,0,1.0857393,36.864747,60.989074)">
          <path
             d="m 240.32523,67.376065 q 0,1.178778 -0.45338,2.26688 -0.45337,1.042765 -1.26945,1.813504 -0.77074,0.77074 -1.8135,1.224116 -1.04277,0.453376 -2.22154,0.453376 h -5.71254 V 41.39762 h 5.71254 q 1.17877,0 2.22154,0.453376 1.04276,0.453376 1.8135,1.269453 0.81608,0.770739 1.26945,1.813504 0.45338,1.042765 0.45338,2.221542 z m -8.25144,2.538906 h 2.49357 q 1.04276,0 1.76816,-0.725402 0.77074,-0.770739 0.77074,-1.813504 v -20.22057 q 0,-1.042764 -0.77074,-1.768166 -0.7254,-0.725402 -1.76816,-0.725402 h -2.49357 z"
             style="font-size:45.3376px;line-height:0.85;stroke-width:0.170016"
             id="path863" />
          <path
             d="m 243.04547,47.155495 q 0,-1.178777 0.45338,-2.221542 0.45338,-1.042765 1.22412,-1.813504 0.77074,-0.770739 1.8135,-1.224115 1.04276,-0.453376 2.22154,-0.453376 h 5.75788 v 3.218969 h -5.75788 q -1.04276,0 -1.76816,0.725402 -0.72541,0.725402 -0.72541,1.768166 v 6.61929 h 5.98457 v 3.21897 h -5.98457 v 10.427648 q 0,1.042765 0.72541,1.768166 0.7254,0.725402 1.76816,0.725402 h 5.75788 v 3.21897 h -5.75788 q -1.17878,0 -2.22154,-0.453376 -1.04276,-0.453376 -1.8135,-1.224116 -0.77074,-0.770739 -1.22412,-1.813504 -0.45338,-1.042764 -0.45338,-2.221542 V 47.155495 Z"
             style="font-size:45.3376px;line-height:0.85;stroke-width:0.170016"
             id="path865" />
          <path
             d="m 232.11913,105.91303 q 0,1.04276 0.7254,1.76816 0.7254,0.72541 1.76816,0.72541 h 5.75788 v 3.2643 h -5.75788 q -1.17877,0 -2.26688,-0.45337 -1.04276,-0.45338 -1.8135,-1.22412 -0.77074,-0.77074 -1.22412,-1.8135 -0.45337,-1.08811 -0.45337,-2.26688 V 79.934582 h 3.26431 v 25.978448 z"
             style="font-size:45.3376px;line-height:0.85;stroke-width:0.170016"
             id="path867" />
          <path
             d="m 246.35509,111.6709 h -3.2643 V 85.465769 q 0,-1.178777 0.45337,-2.221542 0.45338,-1.042765 1.22412,-1.813504 0.77074,-0.816077 1.8135,-1.269453 1.08811,-0.453376 2.26688,-0.453376 1.17878,0 2.22155,0.453376 1.04276,0.453376 1.8135,1.269453 0.81608,0.770739 1.26945,1.813504 0.45338,1.042765 0.45338,2.221542 V 111.6709 h -3.21897 V 99.203062 h -5.03248 z m 2.49357,-28.744036 q -1.04276,0 -1.76816,0.770739 -0.72541,0.725401 -0.72541,1.768166 v 10.518324 h 5.03248 V 85.465769 q 0,-1.042765 -0.77074,-1.768166 -0.7254,-0.770739 -1.76817,-0.770739 z"
             style="font-size:45.3376px;line-height:0.85;stroke-width:0.170016"
             id="path869" />
        </g>
        <g
           aria-label="FAMA"
           id="text12-0"
           style="font-size:163.42px;line-height:0.95;font-family:'DELVON DEMO';-inkscape-font-specification:'DELVON DEMO';stroke-width:0.336717"
           transform="matrix(1.0857393,0,0,1.0857393,36.864747,60.989074)">
          <path
             d="m 291.53234,24.695332 q -3.75866,0 -6.37338,2.61472 -2.61472,2.61472 -2.61472,6.37338 v 23.85932 h 21.57144 v 11.60282 H 282.54424 V 127.48651 H 270.778 V 33.683432 q 0,-4.24892 1.6342,-8.00758 1.6342,-3.75866 4.41234,-6.5368 2.77814,-2.94156 6.5368,-4.57576 3.92208,-1.634199 8.171,-1.634199 h 20.75434 v 11.766239 h -20.75434 z"
             style="font-size:163.42px;stroke-width:0.336717"
             id="path872" />
          <path
             d="M 328.95527,127.48651 H 317.18903 V 33.029752 q 0,-4.24892 1.6342,-8.00758 1.6342,-3.75866 4.41234,-6.5368 2.77814,-2.94156 6.5368,-4.575759 3.92208,-1.6342 8.171,-1.6342 4.24892,0 8.00758,1.6342 3.75866,1.634199 6.5368,4.575759 2.94156,2.77814 4.57576,6.5368 1.6342,3.75866 1.6342,8.00758 V 127.48651 H 347.09489 V 82.546012 h -18.13962 z m 8.9881,-103.608278 q -3.75866,0 -6.37338,2.77814 -2.61472,2.61472 -2.61472,6.37338 v 37.91344 h 18.13962 v -37.91344 q 0,-3.75866 -2.77814,-6.37338 -2.61472,-2.77814 -6.37338,-2.77814 z"
             style="font-size:163.42px;stroke-width:0.336717"
             id="path874" />
          <path
             d="M 406.74305,127.48651 V 51.659632 l -7.3539,21.08118 -11.76624,0.16342 -7.51732,-21.2446 V 127.48651 H 368.50277 V 13.255933 h 10.29546 l 14.7078,41.345259 14.54438,-41.345259 h 10.29546 V 127.48651 Z"
             style="font-size:163.42px;stroke-width:0.336717"
             id="path876" />
          <path
             d="M 439.91728,127.48651 H 428.15104 V 33.029752 q 0,-4.24892 1.6342,-8.00758 1.6342,-3.75866 4.41234,-6.5368 2.77814,-2.94156 6.5368,-4.575759 3.92208,-1.6342 8.171,-1.6342 4.24892,0 8.00758,1.6342 3.75866,1.634199 6.5368,4.575759 2.94156,2.77814 4.57576,6.5368 1.6342,3.75866 1.6342,8.00758 V 127.48651 H 458.0569 V 82.546012 h -18.13962 z m 8.9881,-103.608278 q -3.75866,0 -6.37338,2.77814 -2.61472,2.61472 -2.61472,6.37338 v 37.91344 h 18.13962 v -37.91344 q 0,-3.75866 -2.77814,-6.37338 -2.61472,-2.77814 -6.37338,-2.77814 z"
             style="font-size:163.42px;stroke-width:0.336717"
             id="path878" />
        </g>
        <path
           style="fill:#000000;stroke-width:0.0670636"
           d="m 291.31732,286.50152 c -1.05652,-0.15409 -2.09171,-0.59016 -2.82963,-1.19199 -0.96016,-0.78307 -1.73523,-2.11666 -2.12891,-3.66296 -0.33402,-1.31197 -0.33563,-1.35175 -0.36223,-8.91946 -0.026,-7.40173 -0.003,-8.251 0.25442,-9.5874 0.55318,-2.86653 2.09869,-4.69613 4.45717,-5.27646 0.80974,-0.19925 2.40389,-0.21723 3.25259,-0.0367 2.16662,0.4609 3.69985,1.98729 4.39063,4.37102 0.40674,1.40357 0.51931,2.76359 0.49131,5.93566 l -0.0198,2.24663 -5.04654,2.51055 -5.04653,2.51054 v 1.90705 c 0,2.62291 0.17028,3.6703 0.79259,4.87506 0.28523,0.55219 0.91708,1.21803 1.35344,1.42625 0.96433,0.46013 2.07863,0.46155 3.06574,0.004 0.45624,-0.21153 1.14726,-0.92992 1.44016,-1.49721 0.48436,-0.9381 0.72399,-2.09682 0.72467,-3.50408 l 3.9e-4,-0.82153 h 1.37481 1.3748 v 0.52677 c 0,0.82808 -0.12583,2.16776 -0.26894,2.86327 -0.72011,3.49983 -2.9633,5.43089 -6.25785,5.38712 -0.33852,-0.005 -0.79403,-0.0342 -1.01226,-0.0661 z m 1.1401,-16.03781 3.66093,-1.82748 -0.0326,-2.07897 c -0.0339,-2.16483 -0.0766,-2.5541 -0.38635,-3.52085 -0.24691,-0.77075 -0.53953,-1.28191 -1.00098,-1.74855 -0.64605,-0.65331 -1.32703,-0.93169 -2.28284,-0.93319 -0.98669,-0.002 -1.70678,0.30052 -2.34644,0.98431 -0.64779,0.69249 -1.0985,1.84196 -1.2697,3.23814 -0.069,0.56231 -0.10262,7.71407 -0.0363,7.71407 0.0183,0 1.68078,-0.82236 3.69428,-1.82748 z m 40.03704,16.04246 c -1.95444,-0.3079 -3.33129,-1.27323 -4.23259,-2.96752 -0.4883,-0.91789 -0.741,-1.73331 -0.95009,-3.06569 -0.11142,-0.71001 -0.12103,-1.37547 -0.12103,-8.38296 0,-6.9912 0.01,-7.67352 0.12021,-8.36979 0.33381,-2.10519 0.95234,-3.47612 2.03492,-4.51028 0.52951,-0.50584 1.08869,-0.86201 1.73558,-1.1055 0.83955,-0.31601 1.32002,-0.38906 2.5474,-0.38733 1.00842,10e-4 1.21507,0.0215 1.78938,0.17408 1.13065,0.30035 1.93912,0.7782 2.68403,1.58644 0.91122,0.98871 1.46845,2.31763 1.77427,4.23145 0.0982,0.61441 0.11567,1.56944 0.13996,7.64323 0.029,7.2427 -0.002,8.45434 -0.24807,9.72397 -0.55958,2.88668 -2.0981,4.72738 -4.42945,5.29942 -0.65541,0.16082 -2.20172,0.23175 -2.84452,0.13048 z m 1.9262,-2.64594 c 1.58396,-0.41257 2.51411,-1.84285 2.79474,-4.29745 0.0537,-0.46987 0.0691,-2.78745 0.0522,-7.87516 -0.0238,-7.17554 -0.0246,-7.21242 -0.17361,-7.86675 -0.44335,-1.94706 -1.27471,-3.00725 -2.64401,-3.37178 -0.77137,-0.20536 -1.88187,-0.0631 -2.54619,0.32625 -0.4449,0.26073 -1.0216,0.92151 -1.28844,1.47627 -0.29426,0.6118 -0.5469,1.54968 -0.64226,2.38426 -0.051,0.4468 -0.0661,2.90012 -0.0487,7.92358 0.0273,7.87827 0.0127,7.5527 0.3926,8.71636 0.34681,1.06215 1.048,2.00488 1.73588,2.33384 0.71721,0.34298 1.63865,0.4405 2.36779,0.25058 z m 22.74528,2.62315 c -1.65097,-0.27089 -2.95019,-1.10377 -3.82054,-2.44918 -0.58382,-0.9025 -0.92827,-1.85651 -1.18897,-3.29299 l -0.15214,-0.83829 v -7.77938 -7.77938 l 0.15214,-0.8383 c 0.48507,-2.67283 1.55007,-4.33372 3.33517,-5.20127 0.77176,-0.37507 1.53701,-0.55739 2.54842,-0.60717 1.97219,-0.0971 3.56799,0.47689 4.7417,1.70539 0.7859,0.8226 1.2917,1.77884 1.63323,3.08773 0.31158,1.19408 0.36496,1.92925 0.36496,5.02616 v 2.8639 l -5.02977,2.51417 -5.02977,2.51417 v 1.93659 c 0,2.18123 0.0784,2.93982 0.40875,3.95331 0.57134,1.75301 1.69857,2.66143 3.30249,2.66143 2.27572,0 3.66468,-2.06471 3.66557,-5.44892 v -0.72094 h 1.33204 1.33204 l 0.0411,0.35209 c 0.0521,0.44701 -0.0552,2.05159 -0.18801,2.81137 -0.40878,2.33771 -1.58903,4.12018 -3.28006,4.95368 -0.37343,0.18406 -0.92038,0.39671 -1.21546,0.47256 -0.68934,0.1772 -2.18391,0.22947 -2.95305,0.10327 z m 1.2763,-16.01938 3.65513,-1.8272 v -1.62922 c 0,-1.82226 -0.0684,-2.61911 -0.30564,-3.56258 -0.51323,-2.04078 -1.68183,-3.09113 -3.43913,-3.09113 -1.54551,0 -2.678,0.93686 -3.23521,2.67637 -0.36763,1.14767 -0.39619,1.55015 -0.39662,5.58922 0,2.01945 0.0146,3.67173 0.033,3.67173 0.0184,0 1.67818,-0.82223 3.6885,-1.82719 z m 14.55297,16.04203 c -2.68629,-0.41856 -4.34487,-2.26032 -4.90911,-5.45126 -0.11183,-0.63242 -0.12067,-1.28667 -0.12067,-8.93123 0,-7.72665 0.008,-8.29341 0.12405,-8.953 0.41482,-2.35498 1.49825,-4.0415 3.12087,-4.85811 1.92354,-0.96804 4.62516,-0.81322 6.29094,0.36051 1.76968,1.24694 2.7017,3.48581 2.70286,6.49274 l 6.7e-4,1.02273 h -1.34127 -1.34127 v -0.72094 c -0.001,-3.29935 -1.22663,-5.1136 -3.45406,-5.1136 -1.99413,0 -3.14769,1.38908 -3.38325,4.07401 -0.0927,1.05701 -0.0927,14.3343 0,15.39131 0.23598,2.68969 1.38558,4.07401 3.38325,4.07401 0.9383,0 1.67883,-0.30295 2.26046,-0.92476 0.7644,-0.8172 1.19264,-2.32068 1.19313,-4.18884 v -0.72093 h 1.34128 1.34127 l -6.7e-4,1.02272 c -0.002,3.92795 -1.60477,6.55104 -4.45934,7.29598 -0.61811,0.1613 -2.09624,0.23047 -2.74961,0.12866 z m 15.28825,-0.0273 c -2.90063,-0.4509 -4.67733,-2.73544 -5.0619,-6.50875 -0.0525,-0.5155 -0.0673,-3.04047 -0.049,-8.38295 0.0234,-6.8388 0.0381,-7.70539 0.13946,-8.2153 0.41163,-2.07118 1.19547,-3.58486 2.30982,-4.46046 1.29861,-1.0204 3.16891,-1.43824 5.11171,-1.14201 2.86574,0.43695 4.49311,2.30917 5.10469,5.87275 0.0669,0.38978 0.0909,2.94551 0.10804,11.51615 l 0.0221,11.01521 h -1.27612 -1.27612 v -0.60438 -0.60438 l -0.50805,0.40372 c -1.28006,1.01722 -2.82996,1.38937 -4.62457,1.1104 z m 1.98795,-2.58692 c 1.2188,-0.23114 2.11108,-1.13531 2.56942,-2.60363 0.41548,-1.33108 0.40759,-1.15488 0.40759,-9.09758 0,-6.74385 -0.009,-7.29119 -0.12381,-7.9441 -0.44568,-2.52413 -1.51364,-3.76697 -3.32997,-3.87523 -1.70199,-0.10146 -2.87837,0.76309 -3.48656,2.56234 -0.44298,1.31049 -0.43666,1.17712 -0.43666,9.22346 0,6.75341 0.009,7.32701 0.12288,7.98057 0.37358,2.14087 1.22911,3.32904 2.678,3.71924 0.42195,0.11364 1.10538,0.12857 1.59911,0.0349 z m -150.12924,2.41731 c -0.4795,-0.0302 -1.17361,-0.0894 -1.54246,-0.1314 -0.58637,-0.0668 -0.92267,-0.11083 -1.89455,-0.24794 -0.17481,-0.0247 -0.21795,-0.0617 -0.21795,-0.18716 0,-0.086 0.0476,-0.19593 0.10582,-0.24423 0.34121,-0.28318 0.61189,-1.25632 0.50616,-1.81969 -0.2318,-1.23516 -1.94255,-5.55874 -2.88447,-7.28992 -0.18865,-0.34672 -0.343,-0.69797 -0.343,-0.78056 0,-0.12664 0.39113,-0.37902 2.49812,-1.61199 2.83336,-1.65802 2.92035,-1.71128 2.96007,-1.81218 0.0159,-0.0405 -0.13565,-0.46299 -0.33686,-0.93889 -1.15569,-2.73335 -2.61935,-5.07635 -4.33184,-6.9343 -1.61217,-1.74909 -2.82357,-2.54605 -5.05472,-3.32538 -0.58591,-0.20466 -1.2315,-0.46521 -1.43465,-0.579 -0.2092,-0.11719 -0.64564,-0.48926 -1.00648,-0.85804 -0.69654,-0.71188 -1.12857,-1.06132 -2.24479,-1.8157 -0.8827,-0.59656 -2.61203,-1.64701 -3.35502,-2.03794 -0.29508,-0.15526 -0.86847,-0.46869 -1.27421,-0.69652 -0.79393,-0.44581 -1.15808,-0.59849 -2.03045,-0.85129 -0.55151,-0.15982 -3.33942,-0.74539 -4.29503,-0.90212 -0.31072,-0.051 -0.50477,-0.11655 -0.5286,-0.17865 -0.10404,-0.2711 0.41061,-2.56176 0.95424,-4.24729 2.08205,-6.45543 6.60609,-12.15293 12.3941,-15.60891 2.73018,-1.63017 4.75204,-2.46479 8.22621,-3.39575 1.24295,-0.33307 3.26064,-0.61713 5.43215,-0.76477 0.90128,-0.0613 3.74418,0.0375 4.40116,0.15298 0.11532,0.0203 0.42377,0.0495 0.68544,0.0651 0.98636,0.0585 3.51559,0.6269 5.1406,1.15528 6.12906,1.99289 11.41648,5.98383 14.95414,11.28736 2.76539,4.14579 4.26045,8.39825 4.76667,13.55807 l 0.0439,0.44713 -0.51375,0.0223 c -0.28256,0.0123 -0.59514,-6.7e-4 -0.69462,-0.0288 -0.459,-0.12964 -1.84772,-0.3174 -2.87414,-0.38859 -1.55065,-0.10755 -3.51275,-0.007 -4.78433,0.2464 -3.46814,0.68978 -5.56556,2.79348 -6.47783,6.49726 l -0.14867,0.60357 -0.006,-7.09197 -0.006,-7.09198 h -4.17494 -4.17494 l -3.65451,3.65497 -3.6545,3.65496 h 4.10741 4.10742 l -3.4e-4,1.72689 c -2e-4,0.94979 6.8e-4,6.04243 0.002,11.31699 10e-4,5.27455 10e-4,11.2537 3.3e-4,13.287 l -0.002,3.6969 -0.92212,0.14112 c -2.09295,0.32029 -4.65018,0.45836 -6.42135,0.34668 z m -18.27959,-0.29589 c -0.68591,-0.28666 -2.5016,-1.24253 -3.23057,-1.70072 -1.69494,-1.06536 -3.24828,-2.42505 -4.00332,-3.50423 -0.38164,-0.54549 -0.91237,-1.54247 -0.82111,-1.54247 0.21021,0 4.95077,1.39321 7.9941,2.3494 1.16265,0.3653 2.22542,0.68778 2.36172,0.71662 l 0.24781,0.0524 -1.00189,1.87778 c -0.55104,1.03278 -1.04042,1.88443 -1.08751,1.89255 -0.0471,0.008 -0.25374,-0.0555 -0.45923,-0.14137 z m 27.97029,-16.20339 v -16.36352 h -2.46395 -2.46394 l 1.30645,-1.30774 1.30645,-1.30774 h 2.5323 2.5323 v 17.67126 17.67127 h -1.37481 -1.3748 z m 7.1758,5.81265 c 0,-6.96802 0.0243,-10.79964 0.0715,-11.28345 0.33808,-3.46373 1.74123,-5.59286 4.18703,-6.35339 1.47633,-0.45906 3.43894,-0.38892 4.78819,0.17114 2.05719,0.85391 3.27714,2.75549 3.65975,5.70459 0.0885,0.682 0.10268,2.27929 0.10268,11.55171 v 10.76028 h -1.34128 -1.34127 v -10.3587 c 0,-7.11869 -0.0232,-10.57453 -0.0743,-11.04874 -0.3092,-2.8715 -1.58288,-4.41206 -3.64773,-4.41206 -1.88372,0 -3.0478,1.23464 -3.54095,3.75556 -0.13476,0.68887 -0.13829,0.93628 -0.1623,11.38405 l -0.0245,10.67989 h -1.33839 -1.3384 z m 19.75069,10.39998 c -0.0196,-0.083 -1.21145,-6.33751 -2.64855,-13.89893 -1.4371,-7.56143 -2.62936,-13.81595 -2.64946,-13.89894 l -0.0366,-0.15089 h 1.40961 c 0.77529,0 1.40961,0.0148 1.40961,0.0328 0,0.018 0.78352,4.4015 1.74114,9.74099 0.95763,5.33949 1.7858,10.0057 1.84039,10.36936 0.0546,0.36365 0.1107,0.67263 0.12468,0.68661 0.014,0.014 0.0625,-0.25338 0.10784,-0.59413 0.0652,-0.49017 3.5973,-19.49908 3.732,-20.08476 0.0346,-0.15046 0.0387,-0.15089 1.41274,-0.15089 1.28098,0 1.3756,0.008 1.34323,0.11736 -0.0191,0.0645 -1.24645,6.36434 -2.72733,13.99953 -1.48088,7.63519 -2.70635,13.9048 -2.72326,13.93247 -0.0169,0.0277 -0.54144,0.0503 -1.16561,0.0503 -1.1216,0 -1.13526,-0.002 -1.17048,-0.1509 z m 25.38313,-10.2007 c 0,-6.56602 0.0255,-10.66545 0.0697,-11.20984 0.20331,-2.50366 0.8735,-4.21223 2.11897,-5.402 0.74084,-0.70772 1.56107,-1.13365 2.66571,-1.38425 0.70517,-0.15997 2.4545,-0.1578 3.15973,0.004 2.51055,0.57573 4.04011,2.33093 4.59452,5.27229 0.24745,1.31282 0.26727,2.26087 0.26744,12.79397 v 10.2775 h -1.37481 -1.3748 v -10.47869 c 0,-7.20044 -0.0232,-10.66752 -0.0739,-11.08227 -0.28663,-2.34828 -1.21765,-3.75278 -2.75978,-4.16332 -0.77138,-0.20535 -1.88188,-0.0631 -2.54619,0.32625 -0.44546,0.26106 -1.02159,0.92149 -1.28915,1.47776 -0.27825,0.57851 -0.54179,1.5383 -0.63814,2.32402 -0.0455,0.37097 -0.0697,4.21889 -0.0697,11.08227 l -3e-5,10.51398 h -1.3748 -1.37481 z m 21.74338,10.27966 c -2.91212,-0.2814 -4.5787,-1.97187 -5.15708,-5.23098 -0.10203,-0.57499 -0.11433,-1.92676 -0.13587,-14.93353 l -0.0237,-14.30132 h 1.37672 1.37673 v 3.21905 3.21906 h 2.04544 2.04544 v 1.34127 1.34127 h -2.04544 -2.04544 v 9.44097 c 0,5.95077 0.025,9.64053 0.0677,9.98078 0.29544,2.35616 1.28249,3.30738 3.43639,3.31166 l 0.58681,10e-4 v 1.34127 1.34128 l -0.48621,-0.009 c -0.26742,-0.005 -0.73609,-0.0333 -1.04149,-0.0628 z m 24.81354,0 c -2.51433,-0.24296 -4.18788,-1.61432 -4.87854,-3.99761 -0.42291,-1.45941 -0.39526,-0.39058 -0.41738,-16.13337 l -0.0201,-14.33485 h 1.37644 1.37644 v 3.21905 3.21906 h 2.0119 2.01191 v 1.34127 1.34127 h -2.01362 -2.01362 l 0.0203,9.84159 0.0203,9.84159 0.15108,0.56585 c 0.29733,1.11365 0.81324,1.84366 1.52566,2.15879 0.44567,0.19715 1.13156,0.32427 1.75666,0.32559 l 0.55327,10e-4 v 1.34127 1.34128 l -0.45268,-0.009 c -0.24897,-0.005 -0.70255,-0.0333 -1.00795,-0.0628 z m -114.25764,-1.85335 c -0.98223,-0.23398 -3.8076,-1.31448 -5.22216,-1.9971 l -0.88063,-0.42497 0.63978,-0.006 c 1.45536,-0.0134 2.49608,-0.56176 3.02953,-1.59627 0.34779,-0.67447 0.42157,-1.01671 0.42157,-1.95557 v -0.82988 l 0.45018,0.93047 c 0.86634,1.79065 2.0647,5.00622 2.0647,5.54024 0,0.21273 -0.0289,0.26665 -0.17202,0.32107 -0.0946,0.036 -0.17761,0.0619 -0.18443,0.0576 -0.007,-0.004 -0.0727,-0.0222 -0.14652,-0.0397 z m -6.30398,-4.28573 c -3.37621,-0.19436 -5.94388,-0.59135 -9.08713,-1.40498 -4.13151,-1.06943 -6.04393,-1.97405 -7.71248,-3.64817 -1.10316,-1.10684 -1.89356,-2.38477 -2.38064,-3.84901 -0.40239,-1.20965 -0.4694,-1.66574 -0.4694,-3.19519 0,-1.19434 0.0205,-1.46619 0.15587,-2.07096 0.30839,-1.37733 0.88015,-2.67441 1.66748,-3.78273 0.49945,-0.70309 1.57883,-1.78246 2.28191,-2.28192 1.11303,-0.79066 2.53102,-1.40802 3.90885,-1.7018 0.81495,-0.17376 3.14179,-0.17376 3.95675,0 1.98159,0.42252 3.71823,1.35303 5.09535,2.73015 1.70303,1.70302 2.75709,3.90131 3.74554,7.81142 0.81546,3.22585 1.18176,5.79886 1.26025,8.8524 0.0396,1.54179 0.0396,1.5426 -0.12349,1.84425 -0.0897,0.16598 -0.28919,0.39058 -0.44326,0.4991 -0.25373,0.17872 -0.33541,0.19842 -0.86668,0.20896 -0.3226,0.006 -0.76761,0.001 -0.98892,-0.0115 z m -8.31589,-6.43036 c 1.09609,-0.29121 1.95259,-0.80033 2.81667,-1.67428 1.82222,-1.84304 2.25475,-4.55305 1.1028,-6.90946 -0.74228,-1.51838 -2.25621,-2.74324 -3.95301,-3.19821 -0.47197,-0.12656 -0.73155,-0.15194 -1.50893,-0.14752 -1.14301,0.006 -1.70032,0.13664 -2.68254,0.62652 -1.20945,0.60319 -2.12013,1.51527 -2.71451,2.71869 -0.47786,0.9675 -0.62806,1.60697 -0.63005,2.68254 -0.002,0.95484 0.0821,1.40812 0.42517,2.29773 0.78337,2.03135 2.86211,3.57785 5.05344,3.75958 0.66345,0.055 1.5452,-0.0106 2.09096,-0.15559 z m 13.15704,-0.14403 c -0.0254,-0.0254 -0.0461,-0.0971 -0.0461,-0.15937 0,-0.0623 -0.28968,-0.90982 -0.64375,-1.88337 -0.90618,-2.49169 -2.84982,-8.33828 -2.78006,-8.36261 0.10784,-0.0376 0.95728,0.38662 1.50838,0.75331 1.72815,1.14986 3.38973,3.13943 4.8999,5.8671 0.21192,0.38276 0.48493,0.91453 0.60668,1.1817 l 0.22137,0.48576 -1.81661,1.06363 c -2.06385,1.2084 -1.88949,1.11416 -1.9498,1.05385 z m -26.69227,-6.04123 c -0.89973,-3.17789 -1.63767,-7.0443 -2.12184,-11.11727 -0.18384,-1.54645 -0.1802,-1.80657 0.0282,-2.01496 0.19477,-0.19477 0.16191,-0.19363 1.8473,-0.064 3.6586,0.28138 7.39316,0.81372 10.36133,1.47695 1.91477,0.42785 1.90519,0.42193 0.69407,0.42858 -0.70912,0.004 -1.29696,0.0481 -1.81217,0.13614 -4.93683,0.84399 -8.5825,4.99092 -8.81535,10.02742 -0.0205,0.44391 -0.007,1.06362 0.0301,1.37713 0.0371,0.31352 0.0592,0.57824 0.0491,0.58828 -0.01,0.01 -0.12738,-0.36718 -0.26076,-0.83827 z m 64.8064,-17.50508 c -1.47778,-5.65269 -4.55508,-10.75083 -8.94618,-14.82105 l -0.66278,-0.61435 0.43802,-0.65687 c 2.38948,-3.58333 6.59925,-5.40406 10.81919,-4.67931 3.67252,0.63074 6.76449,3.13896 8.16881,6.62657 0.77091,1.91456 0.96028,4.23357 0.51305,6.28275 -0.95724,4.38591 -4.61837,7.76591 -9.0436,8.34917 -1.20946,0.15941 -1.10745,0.19802 -1.28651,-0.48691 z"
           id="path915" />
        <path
           id="rect133"
           style="fill:none;stroke:#000000;stroke-width:8.57037;stroke-linecap:butt;stroke-linejoin:bevel;stroke-miterlimit:18.6;stroke-dasharray:none;stroke-opacity:1;paint-order:fill markers stroke"
           d="M 42.610228,37.254326 H 557.38976 c 10.49339,0 18.94113,8.893757 18.94113,19.94116 V 297.72302 c 0,11.0474 -8.44774,19.94116 -18.94113,19.94116 H 42.610228 c -10.49339,0 -18.941138,-8.89376 -18.941138,-19.94116 V 57.195486 c 0,-11.047403 8.447748,-19.94116 18.941138,-19.94116 z" />
      </g>
    </g>
  </g>
</svg>
